<svg width="56" height="56" viewBox="0 0 56 56" fill="none" xmlns="http://www.w3.org/2000/svg">
<rect width="55" height="55" transform="translate(0.308105 0.423828)" fill="#F8F8FC"/>
<path d="M25.6156 18.9297L26.4489 18.1629C26.8875 17.7466 27.4577 17.396 27.6989 17.396C27.9401 17.396 28.5542 17.7247 29.0805 18.1629C29.9796 18.9078 30.0454 18.9297 33.3349 18.8202L33.8173 20.1348C34.2778 21.4056 34.2998 21.4275 37.0191 22.4354L36.734 25.6125L37.5454 26.5984C37.984 27.1462 38.3349 27.7597 38.3349 27.9569C38.3349 28.176 37.984 28.7457 37.5673 29.2277C36.8217 30.0822 36.7998 30.148 36.9094 33.4784L35.5936 33.9604C34.2998 34.4205 34.2778 34.4644 33.1813 37.1594L31.6024 37.0279C30.0015 36.8964 30.0015 36.8964 29.1901 37.6633C28.7296 38.0796 28.1594 38.4083 27.9182 38.4302C27.677 38.4302 27.0629 38.1015 26.5585 37.6633C25.6375 36.9183 25.5717 36.8964 22.2822 37.006L21.7998 35.6913C21.3392 34.4205 21.3173 34.3986 18.598 33.3907L18.8831 30.2137L18.0717 29.2277C17.6331 28.68 17.2822 28.0665 17.2822 27.8693C17.2822 27.6502 17.6331 27.0805 18.0498 26.5984C18.7954 25.7439 18.8173 25.6782 18.7077 22.3478L19.9357 21.8658C21.1419 21.4056 21.2077 21.3399 22.2384 18.6668L25.6156 18.9297Z" fill="#6161FF" fill-opacity="0.1"/>
<circle cx="27.3083" cy="28.4243" r="11" fill="white" fill-opacity="0.21"/>
<path fill-rule="evenodd" clip-rule="evenodd" d="M25.8127 16.1469C24.9136 16.848 24.7601 16.8699 23.4224 16.7823C22.1724 16.7166 21.9092 16.7604 21.361 17.2205C21.0101 17.4834 20.5057 18.2284 20.2426 18.82C19.8259 19.7402 19.6285 19.9593 18.9048 20.1784C18.4443 20.3318 17.7645 20.7481 17.3917 21.1206C16.7776 21.756 16.7338 21.9313 16.7338 23.3774C16.7119 24.7797 16.6461 25.0645 16.0101 25.9847C15.4838 26.7735 15.3083 27.2775 15.3083 27.9567C15.3303 28.6797 15.5057 29.1399 16.054 29.8848C16.7776 30.8489 16.7996 30.9146 16.668 32.3388C16.5009 33.9371 17.2962 35.2336 19.0364 35.6911C19.6285 35.8664 19.8259 36.0636 20.0233 36.6552C20.1329 37.0715 20.5496 37.7507 20.9224 38.1889C21.6022 38.9558 21.6461 38.9777 23.225 38.9777C24.6724 38.9777 24.9575 39.0654 25.9443 39.7008C26.7119 40.2047 27.304 40.4019 27.918 40.4238C28.5759 40.4238 29.0364 40.2266 29.782 39.6789C30.7031 38.9777 30.8566 38.9558 32.1943 39.0435C33.4443 39.1092 33.7075 39.0654 34.2557 38.6052C34.6066 38.3423 35.111 37.5974 35.3741 37.0058C35.7908 36.0855 35.9882 35.8664 36.7119 35.6473C37.1724 35.4939 37.8522 35.0776 38.225 34.7052C38.8391 34.0698 38.8829 33.8945 38.8829 32.4484C38.9048 31.0461 38.9706 30.7613 39.6066 29.841C40.1329 29.0522 40.3083 28.5483 40.3083 27.8471C40.2864 27.146 40.111 26.6859 39.5627 25.9409C38.8391 24.9769 38.8171 24.9111 38.9487 23.4869C39.1158 21.8887 38.3205 20.5922 36.5803 20.1346C35.9882 19.9593 35.7908 19.7621 35.5934 19.1705C35.4838 18.7542 35.0671 18.075 34.6943 17.6368C34.0145 16.8699 33.9706 16.848 32.3917 16.848C30.9443 16.848 30.6592 16.7604 29.6724 16.125C28.8829 15.621 28.3347 15.4238 27.6768 15.4238C27.0189 15.4238 26.5364 15.5991 25.8127 16.1469ZM26.4488 18.163L25.6155 18.9299L22.2383 18.6669C21.2076 21.34 21.1418 21.4058 19.9357 21.8659L18.7076 22.3479C18.8172 25.6783 18.7953 25.7441 18.0497 26.5986C17.633 27.0806 17.2821 27.6503 17.2821 27.8694C17.2821 28.0666 17.633 28.6801 18.0716 29.2278L18.883 30.2138L18.5979 33.3909C21.3172 34.3988 21.3392 34.4207 21.7997 35.6915L22.2821 37.0061C25.5716 36.8966 25.6374 36.9185 26.5585 37.6634C27.0628 38.1016 27.6769 38.4303 27.9181 38.4303C28.1593 38.4084 28.7295 38.0797 29.19 37.6634C29.5329 37.3394 29.7309 37.1522 29.966 37.0541C30.2873 36.92 30.6779 36.9521 31.6023 37.028L33.1813 37.1595C34.2778 34.4645 34.2997 34.4207 35.5936 33.9605L36.9093 33.4785C36.7997 30.1481 36.8216 30.0824 37.5672 29.2278C37.9839 28.7458 38.3348 28.1761 38.3348 27.957C38.3348 27.7598 37.9839 27.1463 37.5453 26.5986L36.7339 25.6126L37.019 22.4356C34.2997 21.4277 34.2778 21.4058 33.8172 20.1349L33.3348 18.8203C30.0453 18.9299 29.9795 18.908 29.0804 18.163C28.5541 17.7248 27.94 17.3961 27.6988 17.3961C27.4576 17.3961 26.8874 17.7467 26.4488 18.163Z" fill="#6161FF"/>
<path d="M29.6069 24.6489C30.199 24.0135 30.8789 23.4 31.142 23.3123C31.4052 23.2247 31.7561 23.2247 31.9534 23.3123C32.1508 23.4 32.3701 23.6848 32.4578 23.9477C32.6113 24.3202 32.3482 24.7146 31.0543 26.095C29.9797 27.2781 29.2122 28.3737 28.5762 29.6664C28.0938 30.6962 27.5675 31.8575 27.414 32.2299C27.2604 32.6243 26.8876 33.0844 26.5806 33.2159C26.0324 33.5007 25.9447 33.435 24.1683 31.5726C22.8306 30.1922 22.3482 29.5349 22.3701 29.1844C22.414 28.8776 22.6552 28.6147 23.0499 28.4613C23.5982 28.2641 23.7297 28.3298 25.9447 30.5647L26.3175 29.6226C26.5368 29.0967 27.1069 28.045 27.6113 27.2562C28.1157 26.4674 29.0148 25.3062 29.6069 24.6489Z" fill="#6161FF"/>
</svg>
