<svg width="56" height="56" viewBox="0 0 56 56" fill="none" xmlns="http://www.w3.org/2000/svg">
<rect width="55" height="55" transform="translate(0.308838 0.423828)" fill="#F8F8FC"/>
<path d="M43.3162 20.7736V23.3795C42.5125 23.7261 41.8279 24.3005 41.3469 25.0318C40.8659 25.763 40.6096 26.6191 40.6096 27.4944C40.6096 28.3697 40.8659 29.2258 41.3469 29.9571C41.8279 30.6883 42.5125 31.2627 43.3162 31.6093V34.2174C43.3162 36.6911 41.5394 38.3469 38.835 38.6987C31.3983 39.6622 27.2397 39.6689 19.7896 38.6987C17.1614 38.3559 15.3083 36.6911 15.3083 34.2174V31.6093C16.1121 31.2627 16.7967 30.6883 17.2777 29.9571C17.7587 29.2258 18.015 28.3697 18.015 27.4944C18.015 26.6191 17.7587 25.763 17.2777 25.0318C16.7967 24.3005 16.1121 23.7261 15.3083 23.3795V20.7736C15.3083 18.2977 17.1793 16.7338 19.7896 16.2924C27.1501 15.0421 31.367 15.2303 38.835 16.2924C41.3042 16.6419 43.3162 18.2977 43.3162 20.7736Z" fill="#6161FF" fill-opacity="0.1"/>
<path d="M43.3162 20.7736V23.3795C42.5125 23.7261 41.8279 24.3005 41.3469 25.0318C40.8659 25.763 40.6096 26.6191 40.6096 27.4944C40.6096 28.3697 40.8659 29.2258 41.3469 29.9571C41.8279 30.6883 42.5125 31.2627 43.3162 31.6093V34.2174C43.3162 36.6911 41.5394 38.3469 38.835 38.6987C31.3983 39.6622 27.2397 39.6689 19.7896 38.6987C17.1614 38.3559 15.3083 36.6911 15.3083 34.2174V31.6093C16.1121 31.2627 16.7967 30.6883 17.2777 29.9571C17.7587 29.2258 18.015 28.3697 18.015 27.4944C18.015 26.6191 17.7587 25.763 17.2777 25.0318C16.7967 24.3005 16.1121 23.7261 15.3083 23.3795V20.7736C15.3083 18.2977 17.1793 16.7338 19.7896 16.2924C27.1501 15.0421 31.367 15.2303 38.835 16.2924C41.3042 16.6419 43.3162 18.2977 43.3162 20.7736Z" stroke="#6161FF" stroke-width="2" stroke-linecap="round" stroke-linejoin="round"/>
<path d="M24.8755 24.7509C25.1696 24.7603 25.4626 24.7105 25.7371 24.6044C26.0116 24.4983 26.2619 24.3382 26.4733 24.1335C26.6847 23.9287 26.8528 23.6836 26.9675 23.4126C27.0823 23.1417 27.1415 22.8504 27.1415 22.5562C27.1415 22.2619 27.0823 21.9706 26.9675 21.6997C26.8528 21.4287 26.6847 21.1836 26.4733 20.9789C26.2619 20.7742 26.0116 20.614 25.7371 20.5079C25.4626 20.4019 25.1696 20.3521 24.8755 20.3615C24.2931 20.3615 23.7346 20.5928 23.3228 21.0046C22.911 21.4164 22.6797 21.9749 22.6797 22.5573C22.6797 23.1397 22.911 23.6982 23.3228 24.11C23.7346 24.5218 24.2931 24.7531 24.8755 24.7531V24.7509Z" fill="#6161FF" fill-opacity="0.1"/>
<path d="M24.8755 24.7509C25.1696 24.7603 25.4626 24.7105 25.7371 24.6044C26.0116 24.4983 26.2619 24.3382 26.4733 24.1335C26.6847 23.9287 26.8528 23.6836 26.9675 23.4126C27.0823 23.1417 27.1415 22.8504 27.1415 22.5562C27.1415 22.2619 27.0823 21.9706 26.9675 21.6997C26.8528 21.4287 26.6847 21.1836 26.4733 20.9789C26.2619 20.7742 26.0116 20.614 25.7371 20.5079C25.4626 20.4019 25.1696 20.3521 24.8755 20.3615C24.2931 20.3615 23.7346 20.5928 23.3228 21.0046C22.911 21.4164 22.6797 21.9749 22.6797 22.5573C22.6797 23.1397 22.911 23.6982 23.3228 24.11C23.7346 24.5218 24.2931 24.7531 24.8755 24.7531V24.7509Z" stroke="#6161FF" stroke-width="2" stroke-linecap="round" stroke-linejoin="round"/>
<path d="M33.8382 33.7608C34.4205 33.7608 34.979 33.5294 35.3908 33.1176C35.8026 32.7058 36.034 32.1473 36.034 31.565C36.034 30.9826 35.8026 30.4241 35.3908 30.0123C34.979 29.6005 34.4205 29.3691 33.8382 29.3691C33.2558 29.3691 32.6973 29.6005 32.2855 30.0123C31.8737 30.4241 31.6423 30.9826 31.6423 31.565C31.6423 32.1473 31.8737 32.7058 32.2855 33.1176C32.6973 33.5294 33.2558 33.7608 33.8382 33.7608Z" fill="#6161FF" fill-opacity="0.1"/>
<path d="M33.8382 33.7608C34.4205 33.7608 34.979 33.5294 35.3908 33.1176C35.8026 32.7058 36.034 32.1473 36.034 31.565C36.034 30.9826 35.8026 30.4241 35.3908 30.0123C34.979 29.6005 34.4205 29.3691 33.8382 29.3691C33.2558 29.3691 32.6973 29.6005 32.2855 30.0123C31.8737 30.4241 31.6423 30.9826 31.6423 31.565C31.6423 32.1473 31.8737 32.7058 32.2855 33.1176C32.6973 33.5294 33.2558 33.7608 33.8382 33.7608Z" stroke="#6161FF" stroke-width="2" stroke-linecap="round" stroke-linejoin="round"/>
<path d="M24.1721 32.1789C28.7094 28.4438 30.9769 26.2032 34.4521 21.8989" stroke="#6161FF" stroke-width="2" stroke-linecap="round" stroke-linejoin="round"/>
</svg>
