<svg width="25" height="26" viewBox="0 0 25 26" fill="none" xmlns="http://www.w3.org/2000/svg">
<path d="M18.2314 24.5485C20.2055 24.5023 21.2311 24.4196 22.17 24.2984C22.6103 24.2369 23.0158 24.0249 23.3174 23.6983C23.6191 23.3718 23.7983 22.9508 23.8247 22.507C23.9094 21.266 23.969 20.5695 24.0056 18.8301" stroke="#5034FF" stroke-width="2" stroke-linecap="round" stroke-linejoin="round"/>
<path d="M6.77171 24.5485C4.79761 24.5023 3.77208 24.4196 2.83313 24.2984C2.39283 24.2369 1.9874 24.0249 1.68575 23.6983C1.38409 23.3718 1.20483 22.9508 1.17842 22.507C1.09376 21.266 1.03412 20.5695 0.997559 18.8301" stroke="#5034FF" stroke-width="2" stroke-linecap="round" stroke-linejoin="round"/>
<path d="M18.2314 1.5484C20.2055 1.59458 21.2311 1.67731 22.17 1.79853C22.6103 1.85998 23.0158 2.07201 23.3174 2.39857C23.6191 2.72513 23.7983 3.14607 23.8247 3.58985C23.9094 4.83087 23.969 5.52739 24.0056 7.26675" stroke="#5034FF" stroke-width="2" stroke-linecap="round" stroke-linejoin="round"/>
<path d="M6.77171 1.54846C4.79761 1.59464 3.77208 1.67737 2.83313 1.79859C2.39283 1.86005 1.9874 2.07207 1.68575 2.39863C1.38409 2.72519 1.20483 3.14613 1.17842 3.58991C1.09376 4.83093 1.03412 5.52745 0.997559 7.26681" stroke="#5034FF" stroke-width="2" stroke-linecap="round" stroke-linejoin="round"/>
<path d="M18.2738 18.8208L15.988 16.5369" stroke="#5034FF" stroke-width="2" stroke-linecap="round" stroke-linejoin="round"/>
<path d="M12.0207 17.8588C15.4071 17.8588 17.3119 15.954 17.3119 12.5676C17.3119 9.18126 15.4071 7.27643 12.0207 7.27643C8.63433 7.27643 6.72949 9.18126 6.72949 12.5676C6.72949 15.954 8.63433 17.8588 12.0207 17.8588Z" stroke="#5034FF" stroke-width="2" stroke-linecap="round" stroke-linejoin="round"/>
</svg>
